<svg width="25" height="25" viewBox="0 0 25 25" fill="none" xmlns="http://www.w3.org/2000/svg">
<path d="M20.6096 11.3198H22.6096C22.6096 6.1898 18.7366 2.3208 13.5996 2.3208V4.3208C17.6616 4.3208 20.6096 7.2638 20.6096 11.3198Z" fill="white"/>
<path d="M13.6097 8.3208C15.7127 8.3208 16.6097 9.2178 16.6097 11.3208H18.6097C18.6097 8.0958 16.8347 6.3208 13.6097 6.3208V8.3208ZM17.0317 13.7638C16.8395 13.5891 16.587 13.496 16.3275 13.504C16.0679 13.512 15.8217 13.6206 15.6407 13.8068L13.2477 16.2678C12.6717 16.1578 11.5137 15.7968 10.3217 14.6078C9.12966 13.4148 8.76866 12.2538 8.66166 11.6818L11.1207 9.2878C11.3071 9.10692 11.4158 8.86062 11.4238 8.601C11.4318 8.34139 11.3385 8.08884 11.1637 7.8968L7.46866 3.8338C7.2937 3.64115 7.05054 3.5243 6.79081 3.50806C6.53108 3.49181 6.27525 3.57745 6.07766 3.7468L3.90766 5.6078C3.73477 5.78131 3.63158 6.01225 3.61766 6.2568C3.60266 6.5068 3.31666 12.4288 7.90866 17.0228C11.9147 21.0278 16.9327 21.3208 18.3147 21.3208C18.5167 21.3208 18.6407 21.3148 18.6737 21.3128C18.9182 21.2991 19.149 21.1955 19.3217 21.0218L21.1817 18.8508C21.3511 18.6533 21.4369 18.3976 21.4209 18.1378C21.4048 17.8781 21.2882 17.6349 21.0957 17.4598L17.0317 13.7638V13.7638Z" fill="white"/>
</svg>
